<svg width="100" height="100" viewBox="0 0 100 100" fill="none" xmlns="http://www.w3.org/2000/svg">
<path d="M36.9687 15.4688C41.9415 15.4672 46.8203 16.8225 51.0798 19.3886C55.3392 21.9547 58.8178 25.6344 61.1406 30.0313C63.9938 28.3632 67.1933 27.3758 70.4903 27.146C73.7873 26.9162 77.0928 27.4502 80.1498 28.7063C83.2068 29.9625 85.9327 31.907 88.1156 34.3885C90.2985 36.87 91.8794 39.8217 92.7354 43.014C93.5914 46.2062 93.6994 49.5528 93.0509 52.7936C92.4025 56.0344 91.0151 59.0818 88.9968 61.6989C86.9784 64.316 84.3835 66.4322 81.4138 67.8828C78.4442 69.3334 75.1799 70.0793 71.875 70.0625L36.8906 70.1563C29.6386 70.1563 22.6836 67.2754 17.5557 62.1474C12.4277 57.0195 9.54687 50.0645 9.54688 42.8125C9.54687 35.5605 12.4277 28.6055 17.5557 23.4776C22.6836 18.3496 29.6386 15.4688 36.8906 15.4688H36.9687Z" fill="url(#paint0_linear_1_86)"/>
<path d="M92.6525 54.3663C95.8454 42.9384 89.1696 31.086 77.7418 27.8932C66.3139 24.7003 54.4615 31.3761 51.2686 42.8039C48.0758 54.2318 54.7516 66.0842 66.1794 69.277C77.6072 72.4699 89.4597 65.7941 92.6525 54.3663Z" fill="url(#paint1_linear_1_86)"/>
<path d="M56.5938 83.25C56.5938 84.0133 56.4434 84.7691 56.1513 85.4743C55.8592 86.1796 55.431 86.8203 54.8913 87.3601C54.3516 87.8998 53.7108 88.3279 53.0056 88.62C52.3004 88.9122 51.5446 89.0625 50.7812 89.0625C50.0179 89.0625 49.2621 88.9122 48.5569 88.62C47.8517 88.3279 47.2109 87.8998 46.6712 87.3601C46.1314 86.8203 45.7033 86.1796 45.4112 85.4743C45.1191 84.7691 44.9687 84.0133 44.9688 83.25C44.9688 78.1562 49.6562 73.4375 50.7812 73.4375C51.9062 73.4375 56.5938 78.125 56.5938 83.25Z" fill="#75D1FF"/>
<path d="M56.5938 83.25C56.5938 84.0133 56.4434 84.7691 56.1513 85.4743C55.8592 86.1796 55.431 86.8203 54.8913 87.3601C54.3516 87.8998 53.7108 88.3279 53.0056 88.62C52.3004 88.9122 51.5446 89.0625 50.7812 89.0625C50.0179 89.0625 49.2621 88.9122 48.5569 88.62C47.8517 88.3279 47.2109 87.8998 46.6712 87.3601C46.1314 86.8203 45.7033 86.1796 45.4112 85.4743C45.1191 84.7691 44.9687 84.0133 44.9688 83.25C44.9688 78.1562 49.6562 73.4375 50.7812 73.4375C51.9062 73.4375 56.5938 78.125 56.5938 83.25Z" fill="url(#paint2_linear_1_86)" fill-opacity="0.5"/>
<defs>
<linearGradient id="paint0_linear_1_86" x1="30.0781" y1="72.4844" x2="63.0313" y2="29.8125" gradientUnits="userSpaceOnUse">
<stop stop-color="#F2F2F2"/>
<stop offset="1" stop-color="#CFCFCF"/>
</linearGradient>
<linearGradient id="paint1_linear_1_86" x1="80.7457" y1="40.9487" x2="55.8424" y2="62.6089" gradientUnits="userSpaceOnUse">
<stop offset="0.02" stop-color="white"/>
<stop offset="1" stop-color="white" stop-opacity="0"/>
</linearGradient>
<linearGradient id="paint2_linear_1_86" x1="54.3485" y1="77.2125" x2="46.7975" y2="87.2047" gradientUnits="userSpaceOnUse">
<stop stop-color="#8DD5FE" stop-opacity="0"/>
<stop offset="1" stop-color="#026C99"/>
</linearGradient>
</defs>
</svg>
